<svg width="24" height="24" fill="none" xmlns="http://www.w3.org/2000/svg">
  <path d="M3.25 4c0-.41.34-.75.75-.75s.75.34.75.75v16c0 .41-.34.75-.75.75s-.75-.34-.75-.75V4zM8 6.75h9c.41 0 .75-.34.75-.75s-.34-.75-.75-.75H8c-.41 0-.75.34-.75.75s.34.75.75.75zm12 2.5H8c-.41 0-.75.34-.75.75s.34.75.75.75h12c.41 0 .75-.34.75-.75s-.34-.75-.75-.75zm-12 8h10c.41 0 .75.34.75.75s-.34.75-.75.75H8c-.41 0-.75-.34-.75-.75s.34-.75.75-.75zm0-2.5h7c.41 0 .75-.34.75-.75s-.34-.75-.75-.75H8c-.41 0-.75.34-.75.75s.34.75.75.75z" fill="#2D2E2F"/>
</svg>
