<svg width="24" height="24" fill="none" xmlns="http://www.w3.org/2000/svg"><path d="M10.75 7c0-.41.34-.75.75-.75s.75.34.75.75v10c0 .41-.34.75-.75.75s-.75-.34-.75-.75v-4.25h-4.5V17c0 .41-.34.75-.75.75s-.75-.34-.75-.75V7c0-.41.34-.75.75-.75s.75.34.75.75v4.25h4.5V7Zm5.5 9.25h2.25c.41 0 .75.34.75.75s-.34.75-.75.75h-4c-.3 0-.57-.17-.69-.45s-.06-.6.15-.82l3.41-3.59c.25-.25.38-.56.38-.9 0-.34-.13-.65-.37-.88-.6-.6-1.72-.38-2.04.4a.75.75 0 1 1-1.38-.59 2.745 2.745 0 0 1 2.54-1.69c1.52 0 2.75 1.23 2.75 2.75 0 .74-.29 1.44-.81 1.96l-2.19 2.31Z" fill="#2D2E2F"/></svg>