<svg width="24" height="24" fill="none" xmlns="http://www.w3.org/2000/svg">
  <path d="M6.02 4.427a.75.75 0 01.355.638v5.25a.75.75 0 01-1.5 0V6.279l-.414.207a.75.75 0 11-.671-1.342l1.5-.75a.75.75 0 01.73.033zm3.105 1.768a.75.75 0 01.75-.75h10a.75.75 0 010 1.5h-10a.75.75 0 01-.75-.75zm0 6a.75.75 0 01.75-.75h10a.75.75 0 010 1.5h-10a.75.75 0 01-.75-.75zm.75 5.25a.75.75 0 000 1.5h10a.75.75 0 000-1.5h-10zm-4.958-2.661a.562.562 0 111.036.442.773.773 0 00-.017.04.302.302 0 01-.017.027l-2.394 3.192a.75.75 0 00.6 1.2h2.62a.75.75 0 000-1.5h-1.12l1.5-2 .01-.014a2.062 2.062 0 00-.901-3.068 2.062 2.062 0 00-2.7 1.103.75.75 0 001.383.578z" fill="#2D2E2F"/>
</svg>
