<svg width="24" height="24" fill="none" xmlns="http://www.w3.org/2000/svg"><path d="m12 9.35 1.73 3.9h-3.46L12 9.35Z" fill="#2D2E2F"/><path fill-rule="evenodd" clip-rule="evenodd" d="M3.75 3h16.5c.41 0 .75.34.75.75v16.5c0 .41-.34.75-.75.75H3.75c-.41 0-.75-.34-.75-.75V3.75c0-.41.34-.75.75-.75ZM16 17.25c.1 0 .2-.02.3-.06.38-.17.55-.62.39-.99l-4-9a.253.253 0 0 0-.035-.05c-.012-.015-.025-.03-.035-.05a.57.57 0 0 1-.032-.049.396.396 0 0 0-.058-.081c-.04-.04-.09-.07-.14-.1a.52.52 0 0 1-.03-.022.224.224 0 0 0-.06-.038h-.02c-.05-.02-.11-.03-.17-.04a.36.36 0 0 0-.11-.02.247.247 0 0 0-.063.011.196.196 0 0 1-.047.009c-.06.01-.12.02-.17.04h-.02a.251.251 0 0 0-.047.033c-.015.011-.027.022-.043.027a.71.71 0 0 0-.14.1.396.396 0 0 0-.058.081.57.57 0 0 1-.032.049l-.018.024a.214.214 0 0 0-.042.076l-4 9c-.17.38 0 .82.38.99.09.04.2.06.3.06.29 0 .57-.17.69-.45l.91-2.06h4.8l.91 2.06c.13.28.4.45.69.45Z" fill="#2D2E2F"/></svg>