<svg width="24" height="24" fill="none" xmlns="http://www.w3.org/2000/svg">
  <path d="M8.995 5.25a3.5 3.5 0 100 7 3.5 3.5 0 000-7zm0 8a9.293 9.293 0 00-1.61.135c-2.18.447-4.14 1.885-4.14 3.945 0 .73.564 1.42 1.37 1.42h8.75c.809 0 1.38-.682 1.38-1.42 0-2.05-1.958-3.498-4.14-3.945a9.38 9.38 0 00-1.61-.135zm5.86 0a.75.75 0 00-.542 1.268c.773.808 1.192 1.777 1.192 2.812 0 .163-.021.327-.061.504a.75.75 0 00.731.916h3.21c.806 0 1.37-.69 1.37-1.42 0-2.06-1.96-3.498-4.14-3.945l-.013-.002-.009-.002a9.293 9.293 0 00-1.588-.131h-.15z" fill="#2D2E2F"/>
  <path d="M14.995 5.25c-.739 0-1.415.23-1.972.61a.75.75 0 00-.245.963 4.2 4.2 0 010 3.854.75.75 0 00.137.873l.01.01a.836.836 0 00.107.09 3.47 3.47 0 001.963.6c1.934 0 3.5-1.566 3.5-3.5s-1.566-3.5-3.5-3.5z" fill="#2D2E2F"/>
</svg>
