<svg width="24" height="24" fill="none" xmlns="http://www.w3.org/2000/svg"><path d="M10.625 7c0-.41.34-.75.75-.75s.75.34.75.75v10c0 .41-.34.75-.75.75s-.75-.34-.75-.75v-4.25h-4.5V17c0 .41-.34.75-.75.75s-.75-.34-.75-.75V7c0-.41.34-.75.75-.75s.75.34.75.75v4.25h4.5V7Zm8.5 4.75c0 .65-.27 1.24-.71 1.68.59.45.96 1.1.96 1.83 0 1.38-1.36 2.5-3.03 2.5-.83 0-1.64-.29-2.21-.79a.756.756 0 0 1-.07-1.06c.27-.31.75-.34 1.06-.07.3.26.74.41 1.22.41.81 0 1.53-.47 1.53-1s-.71-1-1.53-1c-.42 0-.76-.34-.76-.75s.34-.75.75-.75c.72 0 1.28-.45 1.28-1s-.56-1-1.25-1c-.38 0-.73.14-.97.38-.29.29-.77.29-1.06 0a.754.754 0 0 1 0-1.06c.52-.52 1.27-.82 2.04-.82 1.52 0 2.75 1.12 2.75 2.5Z" fill="#2D2E2F"/></svg>