<svg fill="none" height="24" width="24" xmlns="http://www.w3.org/2000/svg"><g fill="#2d2e2f"><path d="m9.25 10c0 .41-.34.75-.75.75s-.75-.34-.75-.75v-2c0-.41.34-.75.75-.75h7c.41 0 .75.34.75.75v2c0 .41-.34.75-.75.75s-.75-.34-.75-.75v-1.25h-2v6.5h1.25c.41 0 .75.34.75.75s-.34.75-.75.75h-4c-.41 0-.75-.34-.75-.75s.34-.75.75-.75h1.25v-6.5h-2z"/><path clip-rule="evenodd" d="m3.75 3h16.5c.41 0 .75.34.75.75v16.5c0 .41-.34.75-.75.75h-16.5c-.41 0-.75-.34-.75-.75v-16.5c0-.41.34-.75.75-.75zm.75 16.5h15v-15h-15z" fill-rule="evenodd"/></g></svg>